<?xml version="1.0" encoding="utf-8"?>
<!-- Generator: Adobe Illustrator 17.0.0, SVG Export Plug-In . SVG Version: 6.00 Build 0)  -->
<!DOCTYPE svg PUBLIC "-//W3C//DTD SVG 1.1//EN" "http://www.w3.org/Graphics/SVG/1.1/DTD/svg11.dtd">
<svg version="1.1" id="Capa_1" xmlns="http://www.w3.org/2000/svg" xmlns:xlink="http://www.w3.org/1999/xlink" x="0px" y="0px"
	 width="300px" height="90px" viewBox="0 0 300 90" enable-background="new 0 0 300 90" xml:space="preserve">
<g>
	<g>
		<path fill="#5B5B5F" d="M48.305,4.29h1.314l23.305,48.754h-1.66l-6.916-14.522H33.506L26.59,53.044H25L48.305,4.29z
			 M63.657,37.139L48.927,6.296l-14.73,30.843H63.657z"/>
		<path fill="#5B5B5F" d="M71.128,4.636h1.66l20.954,46.61l20.954-46.61h1.59L94.295,53.39h-1.176L71.128,4.636z"/>
		<path fill="#5B5B5F" d="M121.128,28.909v-0.138c0-13.208,9.405-24.965,24.065-24.965c14.661,0,24.066,11.756,24.066,24.965v0.138
			c0,13.209-9.404,24.965-24.066,24.965C130.533,53.874,121.128,42.118,121.128,28.909z M167.739,28.979V28.84
			c0-12.379-9.129-23.651-22.614-23.651c-13.554,0-22.475,11.065-22.475,23.513v0.138c0,12.379,9.129,23.65,22.613,23.65
			C158.817,52.491,167.739,41.426,167.739,28.979z"/>
		<path fill="#5B5B5F" d="M181.501,4.636h1.315l36.79,45.918V4.636h1.452v48.408h-1.315L182.954,7.126v45.919h-1.453V4.636z"/>
		<path fill="#5B5B5F" d="M235.444,4.636h1.314l36.79,45.918V4.636H275v48.408h-1.315L236.896,7.126v45.919h-1.452V4.636z"/>
	</g>
	<g>
		<path fill="#5B5B5F" d="M89.218,78.345h0.337l2.468,7.236l2.499-7.28h0.26l2.483,7.28l2.483-7.236h0.322l-2.682,7.726h-0.261
			l-2.483-7.297l-2.483,7.297H91.9L89.218,78.345z"/>
		<path fill="#5B5B5F" d="M101.395,78.345h0.337l2.468,7.236l2.499-7.28h0.26l2.483,7.28l2.483-7.236h0.322l-2.682,7.726h-0.261
			l-2.483-7.297l-2.483,7.297h-0.261L101.395,78.345z"/>
		<path fill="#5B5B5F" d="M113.573,78.345h0.337l2.468,7.236l2.499-7.28h0.26l2.483,7.28l2.483-7.236h0.322l-2.682,7.726h-0.261
			l-2.483-7.297l-2.483,7.297h-0.261L113.573,78.345z"/>
		<path fill="#5B5B5F" d="M125.229,85.213h0.552v0.798h-0.552V85.213z"/>
		<path fill="#5B5B5F" d="M132.496,75.204h0.291l5.166,10.806h-0.368l-1.533-3.219h-6.837l-1.533,3.219h-0.353L132.496,75.204z
			 M135.899,82.484l-3.265-6.836l-3.265,6.836H135.899z"/>
		<path fill="#5B5B5F" d="M137.56,75.28h0.368l4.645,10.332l4.644-10.332h0.353l-4.875,10.806h-0.26L137.56,75.28z"/>
		<path fill="#5B5B5F" d="M148.649,80.661v-0.031c0-2.927,2.085-5.533,5.335-5.533c3.25,0,5.335,2.606,5.335,5.533v0.031
			c0,2.928-2.085,5.533-5.335,5.533C150.734,86.194,148.649,83.589,148.649,80.661z M158.98,80.676v-0.03
			c0-2.745-2.023-5.243-5.013-5.243c-3.004,0-4.982,2.453-4.982,5.212v0.031c0,2.743,2.024,5.242,5.013,5.242
			C157.003,85.888,158.98,83.435,158.98,80.676z"/>
		<path fill="#5B5B5F" d="M162.037,75.28h0.291l8.155,10.179V75.28h0.322v10.73h-0.291l-8.155-10.179V86.01h-0.322V75.28z"/>
		<path fill="#5B5B5F" d="M174.001,75.28h0.291l8.155,10.179V75.28h0.322v10.73h-0.291l-8.155-10.179V86.01h-0.322V75.28z"/>
		<path fill="#5B5B5F" d="M185.351,85.213h0.552v0.798h-0.552V85.213z"/>
		<path fill="#5B5B5F" d="M188.479,75.28h0.291l8.155,10.179V75.28h0.322v10.73h-0.291l-8.155-10.179V86.01h-0.321V75.28z"/>
		<path fill="#5B5B5F" d="M200.441,75.28h7.496v0.307h-7.159v4.874h6.499v0.307h-6.499v4.935h7.235v0.307h-7.573V75.28z"/>
		<path fill="#5B5B5F" d="M213.277,75.587h-3.878V75.28h8.094v0.307h-3.879V86.01h-0.337V75.587z"/>
	</g>
</g>
</svg>
